<?xml version="1.0" standalone="no"?>
<!DOCTYPE svg PUBLIC "-//W3C//DTD SVG 20010904//EN"
 "http://www.w3.org/TR/2001/REC-SVG-20010904/DTD/svg10.dtd">
<svg version="1.0" xmlns="http://www.w3.org/2000/svg"
 width="225.000000pt" height="225.000000pt" viewBox="0 0 225.000000 225.000000"
 preserveAspectRatio="xMidYMid meet">

<g transform="translate(0.000000,225.000000) scale(0.100000,-0.100000)"
fill="#000000" stroke="none">
<path d="M1840 2183 c-6 -38 -93 -544 -193 -1125 l-183 -1058 393 0 393 0 0
1125 0 1125 -199 0 -199 0 -12 -67z m-6 -1501 c13 -21 36 -61 51 -90 l27 -53
23 49 c12 26 34 67 49 90 l26 42 65 0 c36 0 65 -2 65 -6 0 -3 -36 -66 -80
-140 l-79 -134 81 -133 c44 -72 89 -147 100 -164 l20 -33 -75 0 -75 0 -61 103
c-34 57 -61 109 -61 115 0 27 -17 7 -48 -56 -18 -37 -46 -88 -62 -115 l-30
-47 -65 0 c-36 0 -65 2 -65 5 0 3 43 78 96 166 l96 161 -81 133 c-45 73 -81
135 -81 139 0 3 31 6 70 6 l70 0 24 -38z"/>
<path d="M1117 716 c-78 -28 -111 -81 -105 -167 6 -83 35 -117 156 -176 78
-39 99 -54 107 -77 8 -25 6 -31 -18 -52 -48 -41 -118 -30 -164 24 l-22 26 -43
-23 c-62 -34 -63 -35 -27 -75 85 -97 253 -115 343 -36 45 40 59 79 54 144 -7
80 -39 116 -146 167 -102 48 -122 64 -122 95 0 54 68 72 117 30 l29 -25 42 27
c23 15 42 32 42 38 0 17 -52 62 -92 78 -45 19 -100 20 -151 2z"/>
<path d="M778 484 c-3 -220 -4 -237 -22 -250 -31 -22 -65 -17 -98 17 -31 30
-31 30 -63 13 -68 -36 -70 -39 -46 -73 38 -54 87 -76 166 -76 88 0 131 22 163
85 21 42 22 55 22 282 l0 238 -59 0 -60 0 -3 -236z"/>
</g>
</svg>
